<svg width="64" height="59" viewBox="0 0 64 59" fill="none" xmlns="http://www.w3.org/2000/svg">
<rect width="64" height="59" fill="#E5E5E5"/>
<g clip-path="url(#clip0)">
<rect width="1280" height="2938" transform="translate(-486 -924)" fill="#20202D"/>
<g filter="url(#filter0_d)">
<rect x="-486" y="-198" width="1280" height="757" fill="black"/>
</g>
<g filter="url(#filter1_d)">
<path d="M52.1107 37.7029L49.1611 40.6525L47.3945 38.8778C47.0679 38.5511 46.5381 38.5511 46.2115 38.8778C45.8848 39.2045 45.8848 39.7342 46.2115 40.0609L48.5695 42.419C48.7257 42.5768 48.9389 42.6655 49.1611 42.6655C49.3832 42.6655 49.596 42.5768 49.7526 42.419L53.3271 38.8778C53.5647 38.6744 53.6684 38.3546 53.5952 38.0503C53.522 37.7456 53.2844 37.508 52.9801 37.4347C52.6758 37.3615 52.356 37.4653 52.1521 37.7029H52.1107Z" fill="#FFBB01"/>
<path d="M53.3271 31.9123V29.3292C53.3271 28.8691 52.954 28.496 52.4939 28.496H49.9943V27.6628C49.9943 26.2824 51.1135 25.1632 52.4939 25.1632C52.954 25.1632 53.3271 24.7901 53.3271 24.33C53.3271 23.8698 52.954 23.4968 52.4939 23.4968C50.1932 23.4968 48.3278 25.3621 48.3278 27.6628V28.496H45.8282C45.3681 28.496 44.995 28.8691 44.995 29.3292V31.9123C40.7219 33.8708 38.3903 38.5414 39.3924 43.1334C40.3948 47.7258 44.4604 51.0001 49.161 51.0001C53.8613 51.0001 57.9273 47.7258 58.9297 43.1334C59.9318 38.5414 57.6002 33.8708 53.3271 31.9123ZM49.9943 49.3263V48.4931C49.9943 48.033 49.6212 47.6599 49.161 47.6599C48.7009 47.6599 48.3278 48.033 48.3278 48.4931V49.3263C44.3546 48.9455 41.2097 45.8006 40.8289 41.8274H41.6621C42.1223 41.8274 42.4953 41.4543 42.4953 40.9942C42.4953 40.5341 42.1223 40.161 41.6621 40.161H40.8289C41.143 37.0491 43.1731 34.3753 46.0865 33.237C46.4071 33.1133 46.6187 32.8057 46.6199 32.4619V30.1625H51.6192V32.4619C51.62 32.8057 51.8316 33.1133 52.1522 33.237C55.0981 34.3505 57.1644 37.0291 57.4932 40.161H56.66C56.1998 40.161 55.8267 40.5341 55.8267 40.9942C55.8267 41.4543 56.1998 41.8274 56.66 41.8274H57.4932C57.1124 45.8006 53.9675 48.9455 49.9943 49.3263Z" fill="#FFBB01"/>
<path d="M30.8377 43.327C30.6628 43.327 8.16606 43.327 8.16606 43.327C6.78565 43.327 5.66642 42.2078 5.66642 40.8274V14.1646H48.9935V29.5457C48.9935 30.0058 49.3665 30.3789 49.8267 30.3789C50.2868 30.3789 50.6599 30.0058 50.6599 29.5457V8.33212C50.6599 6.03143 48.7945 4.16606 46.4938 4.16606H44.8274V3.33285C44.8274 2.87271 44.4543 2.49964 43.9942 2.49964C43.5341 2.49964 43.161 2.87271 43.161 3.33285V6.6657C43.161 7.58598 42.4148 8.33212 41.4946 8.33212C40.5743 8.33212 39.8281 7.58598 39.8281 6.6657V3.33285C39.8281 2.41257 40.5743 1.66642 41.4946 1.66642C41.9547 1.66642 42.3278 1.29335 42.3278 0.833212C42.3278 0.373074 41.9547 0 41.4946 0C39.654 0 38.1617 1.4923 38.1617 3.33285V4.16606H30.6628V3.33285C30.6628 2.87271 30.2897 2.49964 29.8296 2.49964C29.3694 2.49964 28.9964 2.87271 28.9964 3.33285V6.6657C28.9964 7.58598 28.2502 8.33212 27.3299 8.33212C26.4097 8.33212 25.6635 7.58598 25.6635 6.6657V3.33285C25.6635 2.41257 26.4097 1.66642 27.3299 1.66642C27.7901 1.66642 28.1632 1.29335 28.1632 0.833212C28.1632 0.373074 27.7901 0 27.3299 0C25.4894 0 23.9971 1.4923 23.9971 3.33285V4.16606H16.4982V3.33285C16.4982 2.87271 16.1251 2.49964 15.665 2.49964C15.2048 2.49964 14.8318 2.87271 14.8318 3.33285V6.6657C14.8318 7.58598 14.0856 8.33212 13.1653 8.33212C12.2451 8.33212 11.4989 7.58598 11.4989 6.6657V3.33285C11.4989 2.41257 12.2451 1.66642 13.1653 1.66642C13.6255 1.66642 13.9985 1.29335 13.9985 0.833212C13.9985 0.373074 13.6255 0 13.1653 0C11.3248 0 9.83249 1.4923 9.83249 3.33285V4.16606H8.16606C5.86537 4.16606 4 6.03143 4 8.33212V40.8274C4 43.1281 5.86537 44.9935 8.16606 44.9935H27.3299C31.7043 44.9935 31.7043 44.9935 31.7043 44.1603C31.7055 43.9389 31.6185 43.7257 31.4626 43.5687C31.2975 43.4043 31.0709 43.3165 30.8377 43.327ZM8.16606 5.83249H9.83249V6.6657C9.83249 8.50625 11.3248 9.99855 13.1653 9.99855C15.0059 9.99855 16.4982 8.50625 16.4982 6.6657V5.83249H23.9971V6.6657C23.9971 8.50625 25.4894 9.99855 27.3299 9.99855C29.1705 9.99855 30.6628 8.50625 30.6628 6.6657V5.83249H38.1617V6.6657C38.1617 8.50625 39.654 9.99855 41.4946 9.99855C43.3351 9.99855 44.8274 8.50625 44.8274 6.6657V5.83249H46.4938C47.8742 5.83249 48.9935 6.95171 48.9935 8.33212V12.4982H5.66642V8.33212C5.66642 6.95171 6.78565 5.83249 8.16606 5.83249Z" fill="#FFBB01"/>
<path d="M24.9979 18.4975C24.9979 18.0373 24.6248 17.6642 24.1647 17.6642H17.499C17.0388 17.6642 16.6658 18.0373 16.6658 18.4975V25.1632C16.6658 25.6233 17.0388 25.9964 17.499 25.9964H24.1647C24.6248 25.9964 24.9979 25.6233 24.9979 25.1632V18.4975ZM23.3315 24.3299H18.3322V19.3307H23.3315V24.3299Z" fill="#FFBB01"/>
<path d="M24.1647 30.9956C24.6248 30.9956 24.9979 30.6226 24.9979 30.1624C24.9979 29.7023 24.6248 29.3292 24.1647 29.3292H17.499C17.0388 29.3292 16.6658 29.7023 16.6658 30.1624V36.8281C16.6658 37.2883 17.0388 37.6613 17.499 37.6613H24.1647C24.6248 37.6613 24.9979 37.2883 24.9979 36.8281V33.4953C24.9979 33.0351 24.6248 32.6621 24.1647 32.6621C23.7045 32.6621 23.3315 33.0351 23.3315 33.4953V35.9949H18.3322V30.9956H24.1647Z" fill="#FFBB01"/>
<path d="M29.164 29.3292C28.7039 29.3292 28.3308 29.7023 28.3308 30.1624V36.8281C28.3308 37.2883 28.7039 37.6613 29.164 37.6613H35.8297C36.2898 37.6613 36.6629 37.2883 36.6629 36.8281V30.1624C36.6629 29.7023 36.2898 29.3292 35.8297 29.3292H29.164ZM34.9965 35.9949H29.9972V30.9956H34.9965V35.9949Z" fill="#FFBB01"/>
<path d="M47.4946 24.3299C47.9548 24.3299 48.3278 23.9569 48.3278 23.4967V18.4975C48.3278 18.0373 47.9548 17.6642 47.4946 17.6642H40.8289C40.3688 17.6642 39.9957 18.0373 39.9957 18.4975V25.1632C39.9957 25.6233 40.3688 25.9964 40.8289 25.9964C41.2891 25.9964 41.6621 25.6233 41.6621 25.1632V19.3307H46.6614V23.4967C46.6614 23.9569 47.0345 24.3299 47.4946 24.3299Z" fill="#FFBB01"/>
<path d="M36.4213 17.9059C36.2646 17.7481 36.0519 17.6594 35.8297 17.6594C35.6076 17.6594 35.3944 17.7481 35.2382 17.9059L32.4969 20.6553L29.7556 17.9059C29.4289 17.5792 28.8992 17.5792 28.5725 17.9059C28.2458 18.2326 28.2458 18.7623 28.5725 19.089L31.3219 21.8303L28.5725 24.5716C28.4146 24.7278 28.3259 24.941 28.3259 25.1632C28.3259 25.3853 28.4146 25.5985 28.5725 25.7547C28.7287 25.9126 28.9419 26.0012 29.164 26.0012C29.3862 26.0012 29.5989 25.9126 29.7556 25.7547L32.4969 23.0053L35.2382 25.7547C35.3944 25.9126 35.6076 26.0012 35.8297 26.0012C36.0519 26.0012 36.2646 25.9126 36.4213 25.7547C36.5791 25.5985 36.6678 25.3853 36.6678 25.1632C36.6678 24.941 36.5791 24.7278 36.4213 24.5716L33.6718 21.8303L36.4213 19.089C36.5791 18.9328 36.6678 18.7196 36.6678 18.4975C36.6678 18.2753 36.5791 18.0621 36.4213 17.9059Z" fill="#FFBB01"/>
</g>
</g>
<defs>
<filter id="filter0_d" x="-490" y="-198" width="1288" height="765" filterUnits="userSpaceOnUse" color-interpolation-filters="sRGB">
<feFlood flood-opacity="0" result="BackgroundImageFix"/>
<feColorMatrix in="SourceAlpha" type="matrix" values="0 0 0 0 0 0 0 0 0 0 0 0 0 0 0 0 0 0 127 0"/>
<feOffset dy="4"/>
<feGaussianBlur stdDeviation="2"/>
<feColorMatrix type="matrix" values="0 0 0 0 0 0 0 0 0 0 0 0 0 0 0 0 0 0 0.25 0"/>
<feBlend mode="normal" in2="BackgroundImageFix" result="effect1_dropShadow"/>
<feBlend mode="normal" in="SourceGraphic" in2="effect1_dropShadow" result="shape"/>
</filter>
<filter id="filter1_d" x="0" y="0" width="63.1606" height="59.0001" filterUnits="userSpaceOnUse" color-interpolation-filters="sRGB">
<feFlood flood-opacity="0" result="BackgroundImageFix"/>
<feColorMatrix in="SourceAlpha" type="matrix" values="0 0 0 0 0 0 0 0 0 0 0 0 0 0 0 0 0 0 127 0"/>
<feOffset dy="4"/>
<feGaussianBlur stdDeviation="2"/>
<feColorMatrix type="matrix" values="0 0 0 0 0 0 0 0 0 0 0 0 0 0 0 0 0 0 0.25 0"/>
<feBlend mode="normal" in2="BackgroundImageFix" result="effect1_dropShadow"/>
<feBlend mode="normal" in="SourceGraphic" in2="effect1_dropShadow" result="shape"/>
</filter>
<clipPath id="clip0">
<rect width="1280" height="2938" fill="white" transform="translate(-486 -924)"/>
</clipPath>
</defs>
</svg>
